<?xml version="1.0" encoding="UTF-8"?>
<svg version="1.1" xmlns="http://www.w3.org/2000/svg" width="561" height="557">
<path d="M0 0 C46.591875 -0.061875 93.18375 -0.12375 141.1875 -0.1875 C155.87531982 -0.21481201 170.56313965 -0.24212402 185.69604492 -0.27026367 C203.6920166 -0.28381348 203.6920166 -0.28381348 212.12837219 -0.28633118 C217.99498648 -0.28911549 223.8615139 -0.30006321 229.72810364 -0.31672668 C236.51074838 -0.33596329 243.29331055 -0.34447537 250.07598271 -0.34033485 C253.53793236 -0.33854484 256.99969803 -0.34117319 260.46161306 -0.35764539 C295.91142632 -0.50150796 329.30681584 4.5199069 358 27 C358.5352832 27.41330566 359.07056641 27.82661133 359.62207031 28.25244141 C378.31822676 42.81397626 394.80842953 64.82713697 401 88 C400.67 88.99 400.34 89.98 400 91 C398.04492188 91.94799805 398.04492188 91.94799805 395.46875 92.76171875 C394.52104736 93.07173828 393.57334473 93.38175781 392.59692383 93.70117188 C391.06394653 94.1894043 391.06394653 94.1894043 389.5 94.6875 C374.46626149 99.70611736 360.86403598 105.68039012 348 115 C345.2749014 112.2749014 344.25118969 109.00720576 342.8125 105.5 C339.92488457 98.69954434 336.64273697 92.79037981 332 87 C331.45730469 86.29488281 330.91460937 85.58976562 330.35546875 84.86328125 C319.44244964 71.4456348 302.76539122 64.48653286 286 62 C278.4613782 61.31960622 270.88600798 61.43439374 263.32397461 61.45410156 C261.05911586 61.445285 258.79426333 61.43473247 256.5294199 61.42260361 C250.51367444 61.39510627 244.49813713 61.391086 238.48233795 61.39224243 C232.81859971 61.38968357 227.15502943 61.36553364 221.49133301 61.34326172 C204.97344306 61.29069433 188.4554584 61.2724008 171.9375 61.25 C116.5284375 61.12625 116.5284375 61.12625 60 61 C60 156.7 60 252.4 60 351 C129.63 351 199.26 351 271 351 C269.02 369.315 269.02 369.315 267 388 C266.34 395.59 265.68 403.18 265 411 C177.55 411 90.1 411 0 411 C0 275.37 0 139.74 0 0 Z " fill="#025770" transform="translate(6,5)"/>
<path d="M0 0 C21.57526387 26.40653461 27.45889119 71.36342297 27.375 104.5 C27.37478851 105.27970154 27.37457703 106.05940308 27.37435913 106.86273193 C27.33754002 120.55490311 26.10950319 133.63274 23 147 C22.82339844 147.79422363 22.64679688 148.58844727 22.46484375 149.40673828 C12.02164516 195.26978543 -19.85346602 238.84086363 -59.24682617 264.09301758 C-85.54340217 280.5137747 -113.76171887 288.82957781 -143.76757812 295.62695312 C-159.99987888 299.34162975 -175.40365073 304.037698 -189 314 C-189.91136719 314.66644531 -190.82273437 315.33289063 -191.76171875 316.01953125 C-209.6955943 329.90140145 -220.98970276 349.94232872 -224.51953125 372.2890625 C-224.75512592 374.51935866 -224.8933254 376.75983341 -225 379 C-223.74509766 377.87464844 -223.74509766 377.87464844 -222.46484375 376.7265625 C-195.62370392 352.98788068 -160.85008024 333.81834832 -124 336 C-114.75292911 337.1732048 -105.77147777 339.25165497 -96.75 341.5625 C-79.26914245 346.01049671 -58.36206132 349.97805335 -41 343 C-41.86238281 343.02320313 -42.72476563 343.04640625 -43.61328125 343.0703125 C-63.09392702 343.35830515 -80.67285817 340.05187017 -99.25390625 334.41015625 C-100.56887085 334.01135254 -100.56887085 334.01135254 -101.91040039 333.60449219 C-103.57222057 333.09624814 -105.23180696 332.58060778 -106.88842773 332.05566406 C-132.35985777 324.14604451 -159.33938425 326.85614398 -183 339 C-187.34205681 341.45742747 -191.541398 344.11969037 -195.70703125 346.86328125 C-198.11739562 348.42730178 -200.39584068 349.81271326 -203 351 C-191.64036379 329.81295758 -168.16168674 312.83664513 -145.3996582 305.85839844 C-117.8285901 297.72645735 -89.77515844 301.86089586 -64.015625 313.8359375 C-45.58248938 322.37353132 -27.91469257 324.35672147 -8.26171875 318.1328125 C-6.48853802 317.47141294 -4.73949727 316.74549883 -3 316 C-3.51282149 322.26069572 -5.00678041 327.31516625 -7.5 333.0625 C-7.85674805 333.89031982 -8.21349609 334.71813965 -8.58105469 335.57104492 C-19.96232863 361.31758652 -38.78385859 382.27890945 -65.35546875 392.7890625 C-92.8793617 402.92721153 -120.71973338 401.96919257 -147.38378906 389.73730469 C-153.23879398 386.9762028 -158.96009552 384.15154071 -164.4375 380.6875 C-175.89143784 373.46610311 -189.78995368 371.22605982 -202.9375 374.125 C-210.81472918 376.2816193 -217.80883689 379.80581251 -223.8125 385.375 C-226.27881573 387.64567049 -226.79756932 387.97326387 -230.3125 388.4375 C-233 388 -233 388 -235 387 C-228.01087156 317.75279469 -208.82875647 234.05727633 -152.5 187.25 C-150.67515419 185.82241697 -148.8420292 184.40534124 -147 183 C-146.1853125 182.34644531 -145.370625 181.69289062 -144.53125 181.01953125 C-133.10352947 172.18421029 -119.64603455 166.30284442 -106.77197266 159.88964844 C-88.09522984 150.57226213 -70.19536452 140.25827414 -54 127 C-53.44586426 126.54737793 -52.89172852 126.09475586 -52.32080078 125.62841797 C-37.00235544 113.06199709 -25.3392057 100.12637638 -17 82 C-19.80732055 84.7693196 -22.528257 87.54168234 -25.0625 90.5625 C-50.23671444 119.34843258 -83.02699038 136.15006643 -117.640625 150.99609375 C-168.36455116 172.86042304 -202.06837288 209.84263384 -222.64257812 261.04150391 C-225.90958392 269.30552678 -228.99225226 277.63844299 -232 286 C-238.15598774 276.7660184 -236.36115055 261.16675923 -236.3125 250.375 C-236.31067719 249.53617279 -236.30885437 248.69734558 -236.30697632 247.83309937 C-236.26125148 235.33472894 -235.80474517 223.22659089 -233 211 C-232.75056641 209.85023682 -232.75056641 209.85023682 -232.49609375 208.67724609 C-225.88210883 178.77346057 -211.65263326 152.37242241 -190.38574219 130.43261719 C-189.14249382 129.1473139 -187.91764896 127.84426923 -186.6953125 126.5390625 C-160.69405202 99.39488947 -123.80659054 85.11382985 -88.54098511 74.80218506 C-78.59681211 71.88572881 -69.23595215 68.72537087 -60 64 C-59.33371582 63.66000977 -58.66743164 63.32001953 -57.98095703 62.96972656 C-48.7917779 58.21824857 -40.77354723 52.88150082 -33 46 C-32.29617188 45.42765625 -31.59234375 44.8553125 -30.8671875 44.265625 C-16.80643482 32.68618162 -7.67077178 16.22947855 0 0 Z " fill="#047C8A" transform="translate(522,21)"/>
<path d="M0 0 C3.20733134 2.76410716 4.58829111 5.25743666 7.125 9.0625 C7.455 3.1225 7.785 -2.8175 8.125 -8.9375 C16.29686186 -9.00555813 24.46849952 -9.06047762 32.64056969 -9.09293652 C36.4361063 -9.10852331 40.2314372 -9.12963188 44.02685547 -9.16381836 C47.69678362 -9.19666373 51.36651522 -9.21440541 55.03657913 -9.22213173 C56.42947097 -9.22763047 57.82235333 -9.23836686 59.21516037 -9.25469017 C70.79509886 -9.38487792 80.02817073 -8.4859328 89.125 -0.9375 C91.37140612 3.55531223 90.56112712 9.94566674 90.63989258 14.92797852 C90.67145594 16.46746119 90.71913328 18.00670352 90.78344727 19.54516602 C91.3078448 32.27173279 91.3078448 32.27173279 88.44482422 36.60620117 C84.50428316 40.13678337 80.08582086 42.30554261 75.125 44.0625 C75.63289062 44.39121094 76.14078125 44.71992188 76.6640625 45.05859375 C82.85339604 49.33549277 86.76827639 54.34905278 90.125 61.0625 C90.209915 62.9488912 90.232193 64.83828515 90.22265625 66.7265625 C90.21943359 67.84804688 90.21621094 68.96953125 90.21289062 70.125 C90.20451172 71.300625 90.19613281 72.47625 90.1875 73.6875 C90.18298828 74.87085938 90.17847656 76.05421875 90.17382812 77.2734375 C90.16201478 80.20314639 90.1440789 83.13282941 90.125 86.0625 C82.865 86.0625 75.605 86.0625 68.125 86.0625 C67.26777344 84.45761719 66.41054687 82.85273437 65.52734375 81.19921875 C64.37261647 79.04936064 63.21765605 76.89962775 62.0625 74.75 C61.50111328 73.69748047 60.93972656 72.64496094 60.36132812 71.56054688 C54.39895032 58.18301483 54.39895032 58.18301483 44.125 49.0625 C41.155 48.5675 41.155 48.5675 38.125 48.0625 C38.125 60.6025 38.125 73.1425 38.125 86.0625 C28.225 86.0625 18.325 86.0625 8.125 86.0625 C7.795 80.1225 7.465 74.1825 7.125 68.0625 C4.65 71.5275 4.65 71.5275 2.125 75.0625 C-9.12259307 85.72638565 -23.9551217 88.72054993 -39.07421875 88.34375 C-54.29515178 87.21743224 -65.44385507 83.11544059 -76.1953125 72.2109375 C-77.86370517 70.07694688 -78.47957044 68.71067979 -78.875 66.0625 C-80.82720553 67.93661731 -82.6838084 69.82524411 -84.3828125 71.93359375 C-91.57626937 80.7832186 -99.80801325 84.00981861 -110.875 86.0625 C-115.13975475 86.41837033 -119.3634715 86.41608456 -123.640625 86.35546875 C-124.6704248 86.35244751 -125.70022461 86.34942627 -126.76123047 86.34631348 C-130.54925796 86.33080709 -134.33714078 86.2889258 -138.125 86.25 C-146.6225 86.188125 -155.12 86.12625 -163.875 86.0625 C-163.875 54.7125 -163.875 23.3625 -163.875 -8.9375 C-154.84125 -8.999375 -145.8075 -9.06125 -136.5 -9.125 C-132.25116943 -9.16596802 -132.25116943 -9.16596802 -127.91650391 -9.20776367 C-125.64486109 -9.21653419 -123.37321353 -9.22417679 -121.1015625 -9.23046875 C-119.94358154 -9.24581665 -118.78560059 -9.26116455 -117.5925293 -9.27697754 C-107.35758059 -9.28024471 -97.97619327 -7.56427609 -89.875 -0.9375 C-87.05764948 1.94478945 -84.46053718 4.97320792 -81.875 8.0625 C-80.885 9.0525 -80.885 9.0525 -79.875 10.0625 C-79.28332031 9.38703125 -78.69164063 8.7115625 -78.08203125 8.015625 C-77.29183594 7.12359375 -76.50164062 6.2315625 -75.6875 5.3125 C-74.91019531 4.43078125 -74.13289063 3.5490625 -73.33203125 2.640625 C-55.34476773 -16.23313322 -19.78634025 -16.01352113 0 0 Z M38.125 11.0625 C38.125 17.0025 38.125 22.9425 38.125 29.0625 C42.1159375 29.1553125 42.1159375 29.1553125 46.1875 29.25 C47.0112915 29.27731201 47.83508301 29.30462402 48.68383789 29.33276367 C53.92575516 29.39113971 57.47372605 28.50960337 62.125 26.0625 C64.50625912 23.68124088 64.47021641 22.95542462 64.5625 19.6875 C64.60246094 18.91664063 64.64242187 18.14578125 64.68359375 17.3515625 C64.25714183 14.89225511 64.25714183 14.89225511 62.2734375 12.7890625 C57.64623294 10.25156323 53.49445087 10.63153194 48.3125 10.8125 C47.33345703 10.83054687 46.35441406 10.84859375 45.34570312 10.8671875 C42.93837997 10.91415966 40.53156257 10.98589854 38.125 11.0625 Z M-51.25 18.5 C-57.04786371 27.64278509 -57.11836855 39.59214649 -55.125 50 C-53.69488251 55.42252883 -51.31306362 58.97661522 -46.8125 62.375 C-41.52688429 65.41141754 -36.85001618 65.69983506 -30.875 65.0625 C-25.57861585 63.40230463 -21.83088238 60.83738692 -18.875 56.0625 C-15.07839236 46.40224278 -14.36803628 32.97208555 -17.875 23.0625 C-20.23897999 18.54534078 -22.78002989 15.73632776 -27.125 13.0625 C-36.38887881 10.59213232 -44.37855435 11.44772683 -51.25 18.5 Z M-133.875 13.0625 C-133.875 29.8925 -133.875 46.7225 -133.875 64.0625 C-120.7477596 64.93421699 -120.7477596 64.93421699 -110 59.3125 C-105.70347754 52.741348 -105.53696459 46.81748072 -105.5625 39.1875 C-105.54638672 38.23230469 -105.53027344 37.27710938 -105.51367188 36.29296875 C-105.50859883 28.89646832 -106.41823438 23.11685726 -111.1875 17.1875 C-118.34928322 11.52469466 -124.56574223 13.0625 -133.875 13.0625 Z " fill="#045971" transform="translate(169.875,464.9375)"/>
<path d="M0 0 C3.82846467 3.32098787 7.01269483 6.91257945 10 11 C10.37769531 10.50371094 10.75539063 10.00742187 11.14453125 9.49609375 C19.74350032 -1.11668541 30.64696467 -6.21244507 44 -8 C60.1089489 -9.47139042 75.4349614 -7.26176004 88.47265625 2.93359375 C98.47309041 12.03248627 102.34964461 24.10277344 103.21484375 37.26953125 C103.64150469 52.47572724 100.83472095 66.67599773 90.5 78.25 C79.15622949 88.79124755 64.91583616 91.49424301 49.91015625 91.25 C36.28984962 90.3791712 23.6879677 87.02535961 14 77 C12.64974202 75.34701514 11.31313241 73.68262855 10 72 C9.43152344 72.66386719 8.86304688 73.32773437 8.27734375 74.01171875 C-0.80018128 84.39252784 -8.15400391 89.34321414 -22 91 C-38.57313712 91.97932174 -53.32769718 89.75896248 -66.296875 78.8203125 C-68.81982492 76.12376511 -70.85361365 73.00494089 -73 70 C-73.33 76.27 -73.66 82.54 -74 89 C-83.9 89 -93.8 89 -104 89 C-104 57.65 -104 26.3 -104 -6 C-94.1 -6 -84.2 -6 -74 -6 C-73.67 -0.06 -73.34 5.88 -73 12 C-71.659375 10.453125 -70.31875 8.90625 -68.9375 7.3125 C-52.56432105 -10.71325136 -20.2382139 -14.48916273 0 0 Z M-43.6875 20.5625 C-50.39775548 29.43735402 -49.89733369 41.20095167 -48.68359375 51.75 C-47.60721258 57.49069959 -45.3994452 61.89139664 -40.9375 65.8125 C-36.25707832 68.68114555 -31.3116707 68.55870907 -26 68 C-21.51458031 66.66277948 -18.68329814 64.79118732 -15.625 61.25 C-13.7399963 57.4799926 -12.85245404 54.12019452 -12 50 C-11.08476562 50.28875 -10.16953125 50.5775 -9.2265625 50.875 C-8.03804687 51.24625 -6.84953125 51.6175 -5.625 52 C-4.44164062 52.37125 -3.25828125 52.7425 -2.0390625 53.125 C0.79323439 54.09222606 0.79323439 54.09222606 3 54 C3.33 44.43 3.66 34.86 4 25 C-4.78320794 25.86097203 -4.78320794 25.86097203 -13 28 C-13.2784375 26.700625 -13.2784375 26.700625 -13.5625 25.375 C-15.42200438 21.00920711 -18.12101511 18.65222352 -22 16 C-30.1778344 13.2740552 -37.44761498 14.61284219 -43.6875 20.5625 Z M38.3125 20.625 C31.87464709 29.20188146 32.1005857 39.73103496 33 50 C34.08392447 56.20945878 36.45031703 60.6571208 41 65 C46.52964545 68.25273262 51.73510178 68.8543043 58 68 C63.93699398 66.35543198 67.0175436 63.33618838 70.08984375 58.09765625 C72.44378658 52.67247472 72.21577544 47.00139688 72.25 41.1875 C72.270625 40.32318359 72.29125 39.45886719 72.3125 38.56835938 C72.35535165 31.47105471 71.32603307 25.82895914 66.6875 20.1875 C61.06583864 15.61172912 56.77600675 14.48594287 49.6171875 14.71875 C44.55487647 15.26275954 41.89411714 17.12667628 38.3125 20.625 Z " fill="#075A72" transform="translate(455,462)"/>
<path d="M0 0 C9.03375 -0.061875 18.0675 -0.12375 27.375 -0.1875 C31.62383057 -0.22846802 31.62383057 -0.22846802 35.95849609 -0.27026367 C38.23013891 -0.27903419 40.50178647 -0.28667679 42.7734375 -0.29296875 C43.93141846 -0.30831665 45.08939941 -0.32366455 46.2824707 -0.33947754 C57.75839384 -0.34314085 67.80407253 1.95787215 76.203125 10.1484375 C79.62807259 13.85674406 82.58403141 17.06001968 84 22 C82.75 25.3125 82.75 25.3125 81.86499023 27.13500977 C79.02010858 33.26880908 78.64221003 39.6065694 78.6875 46.25 C78.69096436 47.08047852 78.69442871 47.91095703 78.69799805 48.76660156 C78.86300948 58.15675514 80.95963294 66.53446901 85 75 C84.484375 75.495 83.96875 75.99 83.4375 76.5 C81.0855546 78.83363889 81.0855546 78.83363889 79.4921875 80.87109375 C72.29873063 89.7207186 64.06698675 92.94731861 53 95 C48.73524525 95.35587033 44.5115285 95.35358456 40.234375 95.29296875 C39.2045752 95.28994751 38.17477539 95.28692627 37.11376953 95.28381348 C33.32574204 95.26830709 29.53785922 95.2264258 25.75 95.1875 C17.2525 95.125625 8.755 95.06375 0 95 C0 63.65 0 32.3 0 0 Z M30 22 C30 38.83 30 55.66 30 73 C43.1272404 73.87171699 43.1272404 73.87171699 53.875 68.25 C58.17152246 61.678848 58.33803541 55.75498072 58.3125 48.125 C58.32861328 47.16980469 58.34472656 46.21460938 58.36132812 45.23046875 C58.36640117 37.83396832 57.45676562 32.05435726 52.6875 26.125 C45.52571678 20.46219466 39.30925777 22 30 22 Z " fill="#03AAA5" transform="translate(6,456)"/>
<path d="M0 0 C11.88 0 23.76 0 36 0 C36 17.16 36 34.32 36 52 C32.60360867 48.60360867 30.18945484 46.09753552 27.6171875 42.26171875 C27.01245605 41.36654541 26.40772461 40.47137207 25.78466797 39.54907227 C24.83938232 38.13259399 24.83938232 38.13259399 23.875 36.6875 C22.54192443 34.71076365 21.20858904 32.73420248 19.875 30.7578125 C19.22015625 29.78360352 18.5653125 28.80939453 17.890625 27.80566406 C15.24202597 23.87517594 12.5625223 19.96643507 9.875 16.0625 C9.4507373 15.4439917 9.02647461 14.8254834 8.58935547 14.18823242 C6.94658579 11.7982421 5.30475292 9.41458613 3.58691406 7.07763672 C0 2.19565789 0 2.19565789 0 0 Z " fill="#0B5D75" transform="translate(288,456)"/>
<path d="M0 0 C3.42580005 3.42580005 5.96590799 6.7343342 8.5625 10.75 C9.44948491 12.10094114 10.33754233 13.45117859 11.2265625 14.80078125 C11.68321289 15.49510254 12.13986328 16.18942383 12.61035156 16.90478516 C14.84651218 20.27631193 17.13982119 23.60771538 19.4375 26.9375 C20.11111572 27.91553589 20.11111572 27.91553589 20.79833984 28.91333008 C23.24028355 32.45644889 25.68920813 35.99468065 28.140625 39.53125 C28.65052979 40.26867432 29.16043457 41.00609863 29.68579102 41.76586914 C30.67123966 43.19093265 31.65864386 44.61464626 32.64819336 46.03686523 C36 50.8873723 36 50.8873723 36 52 C23.79 52 11.58 52 -1 52 C-0.67 34.84 -0.34 17.68 0 0 Z " fill="#075B73" transform="translate(288,499)"/>
<path d="M0 0 C0.66 0.33 1.32 0.66 2 1 C-4.6 7.6 -11.2 14.2 -18 21 C-18.66 20.67 -19.32 20.34 -20 20 C-7.23404255 5.85106383 -7.23404255 5.85106383 0 0 Z " fill="#3C9EA8" transform="translate(372,206)"/>
<path d="M0 0 C0.66 0.33 1.32 0.66 2 1 C-1.96 4.96 -5.92 8.92 -10 13 C-10.66 12.67 -11.32 12.34 -12 12 C-10.75479583 10.55834372 -9.50362077 9.12184348 -8.25 7.6875 C-7.55390625 6.88699219 -6.8578125 6.08648437 -6.140625 5.26171875 C-4.20854665 3.22034399 -2.30056874 1.60107149 0 0 Z " fill="#448395" transform="translate(476,462)"/>
</svg>
